<?xml version="1.0" encoding="UTF-8" standalone="no"?>
<svg
   xmlns:dc="http://purl.org/dc/elements/1.1/"
   xmlns:cc="http://creativecommons.org/ns#"
   xmlns:rdf="http://www.w3.org/1999/02/22-rdf-syntax-ns#"
   xmlns:svg="http://www.w3.org/2000/svg"
   xmlns="http://www.w3.org/2000/svg"
   id="svg1581"
   version="1.1"
   viewBox="0 0 3.21629 5.9485302"
   height="5.9485302mm"
   width="3.21629mm">
  <defs
     id="defs1575" />
  <metadata
     id="metadata1578">
    <rdf:RDF>
      <cc:Work
         rdf:about="">
        <dc:format>image/svg+xml</dc:format>
        <dc:type
           rdf:resource="http://purl.org/dc/dcmitype/StillImage" />
        <dc:title></dc:title>
      </cc:Work>
    </rdf:RDF>
  </metadata>
  <g
     transform="translate(-121.6121,-184.41264)"
     id="layer1">
    <path
       d="m 124.70737,184.41264 h -0.77152 c -0.86642,0 -1.42664,0.57467 -1.42664,1.46367 v 0.67522 h -0.77575 c -0.067,0 -0.12136,0.054 -0.12136,0.12135 v 0.9779 c 0,0.0667 0.0543,0.12136 0.12136,0.12136 h 0.77575 v 2.46768 c 0,0.067 0.0543,0.12135 0.12136,0.12135 h 1.01177 c 0.067,0 0.12135,-0.0543 0.12135,-0.12135 v -2.46768 h 0.90664 c 0.0674,0 0.12136,-0.0547 0.12136,-0.12136 l 7e-4,-0.9779 c 0,-0.0321 -0.013,-0.0631 -0.036,-0.0861 -0.0226,-0.0226 -0.0533,-0.0353 -0.0857,-0.0353 h -0.90699 v -0.57221 c 0,-0.27517 0.0656,-0.41451 0.42369,-0.41451 h 0.51964 c 0.067,0 0.12136,-0.0543 0.12136,-0.12136 v -0.90805 c 0,-0.067 -0.0543,-0.121 -0.12101,-0.12135"
       style="fill:black;fill-opacity:1;fill-rule:nonzero;stroke:none;stroke-width:0.35277775"
       id="path1557" />
  </g>
</svg>
