<?xml version="1.0" encoding="utf-8"?>
<!-- Generator: Adobe Illustrator 27.4.1, SVG Export Plug-In . SVG Version: 6.00 Build 0)  -->
<svg version="1.1" id="Layer_1" xmlns="http://www.w3.org/2000/svg" xmlns:xlink="http://www.w3.org/1999/xlink" x="0px" y="0px"
	 viewBox="0 0 68 68.1" style="enable-background:new 0 0 68 68.1;" xml:space="preserve">
<style type="text/css">
	.st0{fill:#8C8C8C;}
</style>
<path class="st0" d="M41,20.1h5c0.6,0,1-0.4,1-1v-6.7c0-0.5-0.4-1-0.9-1c-1.6-0.1-4.7-0.3-6.9-0.3C33,11.1,29,14.7,29,21.4V28h-7
	c-0.6,0-1,0.4-1,1v7c0,0.6,0.4,1,1,1h7v19c0,0.6,0.4,1,1,1h7c0.6,0,1-0.4,1-1V37h7.2c0.5,0,0.9-0.4,1-0.9l0.8-7
	c0.1-0.6-0.4-1.1-1-1.1h-8v-5C38,21.4,39.3,20.1,41,20.1z"/>
<g>
	<path class="st0" d="M34,67.3C15.6,67.3,0.7,52.4,0.7,34C0.7,15.6,15.6,0.7,34,0.7c18.4,0,33.3,14.9,33.3,33.3
		C67.2,52.4,52.3,67.3,34,67.3z M34,1.7C16.2,1.7,1.7,16.2,1.7,34c0,17.8,14.5,32.3,32.3,32.3c17.8,0,32.3-14.5,32.3-32.3
		C66.2,16.2,51.8,1.7,34,1.7z"/>
</g>
</svg>
