<?xml version="1.0" encoding="UTF-8" standalone="no"?>
<!-- Generator: Adobe Illustrator 15.0.0, SVG Export Plug-In . SVG Version: 6.00 Build 0)  -->

<svg
   xmlns:dc="http://purl.org/dc/elements/1.1/"
   xmlns:cc="http://creativecommons.org/ns#"
   xmlns:rdf="http://www.w3.org/1999/02/22-rdf-syntax-ns#"
   xmlns:svg="http://www.w3.org/2000/svg"
   xmlns="http://www.w3.org/2000/svg"
   xmlns:sodipodi="http://sodipodi.sourceforge.net/DTD/sodipodi-0.dtd"
   xmlns:inkscape="http://www.inkscape.org/namespaces/inkscape"
   version="1.1"
   id="Layer_1"
   x="0px"
   y="0px"
   width="5mm"
   height="6.6999998mm"
fill="#ed6746"
   stroke="#ed6746"
   viewBox="0 0 18.897638 25.322833"
   enable-background="new 0 0 300 300"
   xml:space="preserve"
   sodipodi:docname="uahsign.svg"
   inkscape:version="0.92.4 (unknown)"><metadata
   id="metadata15"><rdf:RDF><cc:Work
       rdf:about=""><dc:format>image/svg+xml</dc:format><dc:type
         rdf:resource="http://purl.org/dc/dcmitype/StillImage" /><dc:title></dc:title></cc:Work></rdf:RDF></metadata><defs
   id="defs13" /><sodipodi:namedview
   pagecolor="#ffffff"
   bordercolor="#666666"
   borderopacity="1"
   objecttolerance="10"
   gridtolerance="10"
   guidetolerance="10"
   inkscape:pageopacity="0"
   inkscape:pageshadow="2"
   inkscape:window-width="1276"
   inkscape:window-height="789"
   id="namedview11"
   showgrid="false"
   units="mm"
   inkscape:zoom="8.9001173"
   inkscape:cx="-16.392708"
   inkscape:cy="11.962901"
   inkscape:window-x="230"
   inkscape:window-y="77"
   inkscape:window-maximized="0"
   inkscape:current-layer="Layer_1" />


<path
   d="m 2.1948559,6.2692588 c 0,0 2.3377399,-1.7045882 5.8163232,-1.7045882 3.4783889,0 4.3054549,1.6477569 4.1055469,3.1252101 H -5.9681279e-4 V 10.900241 H 8.353177 c 0,0 -3.5924519,1.449136 -4.9896481,2.756092 H -5.9681279e-4 v 3.210361 H 1.2253049 c 0,0 -0.1140591,0.795659 -0.1140591,1.306958 0,0.511297 -0.48467709,7.301923 9.8652312,7.301923 0,0 4.404819,0.0285 6.84271,-1.335275 v -5.42664 c 0,0 -2.480418,2.415095 -6.728648,2.415095 -4.2486174,0 -4.8185498,-2.216085 -3.592451,-4.290183 H 18.902605 V 13.62821 h -5.759682 c 0,0 1.995938,-0.710505 3.564229,-2.727774 h 2.195453 V 7.7182008 h -0.969548 c 0,0 0.439794,-7.50074043 -9.4809003,-7.50074043 0,0 -4.1906078,0.0285082 -6.2718001,0.96615423 z"
   id="path6"
   inkscape:connector-curvature="0"
   style="stroke-width:0.19564411" />

</svg>
