<?xml version="1.0" encoding="UTF-8" standalone="no"?>
<svg
   xmlns:dc="http://purl.org/dc/elements/1.1/"
   xmlns:cc="http://creativecommons.org/ns#"
   xmlns:rdf="http://www.w3.org/1999/02/22-rdf-syntax-ns#"
   xmlns:svg="http://www.w3.org/2000/svg"
   xmlns="http://www.w3.org/2000/svg"
   id="svg1581"
   version="1.1"
   viewBox="0 0 7.047904 5.9376283"
   height="5.9376283mm"
   width="7.047904mm">
  <defs
     id="defs1575" />
  <metadata
     id="metadata1578">
    <rdf:RDF>
      <cc:Work
         rdf:about="">
        <dc:format>image/svg+xml</dc:format>
        <dc:type
           rdf:resource="http://purl.org/dc/dcmitype/StillImage" />
        <dc:title></dc:title>
      </cc:Work>
    </rdf:RDF>
  </metadata>
  <g
     transform="translate(-119.75858,-183.91785)"
     id="layer1">
    <path
       d="m 126.35429,183.94102 -6.44596,2.51178 c -0.20884,0.0815 -0.19614,0.381 0.0187,0.4445 l 1.6383,0.48366 0.61101,1.93992 c 0.0639,0.2025 0.32067,0.26388 0.46919,0.11219 l 0.84702,-0.86466 1.66159,1.21955 c 0.20355,0.14922 0.49283,0.0385 0.54469,-0.20849 l 1.10031,-5.26168 c 0.054,-0.25753 -0.19932,-0.47237 -0.44485,-0.37677 m -0.80822,1.1677 -2.99402,2.64759 c -0.0296,0.0265 -0.0487,0.0631 -0.0533,0.10266 l -0.11536,1.02447 c -0.004,0.0335 -0.0504,0.0381 -0.0603,0.006 l -0.47449,-1.52824 c -0.0215,-0.0699 0.007,-0.14605 0.0688,-0.1845 l 3.53589,-2.19287 c 0.0811,-0.0504 0.1644,0.0614 0.0928,0.12489"
       style="fill:black;fill-opacity:1;fill-rule:nonzero;stroke:none;stroke-width:0.35277775"
       id="path1549" />
  </g>
</svg>
