<?xml version="1.0" encoding="utf-8"?>
<!-- Generator: Adobe Illustrator 27.4.1, SVG Export Plug-In . SVG Version: 6.00 Build 0)  -->
<svg version="1.1" id="Layer_1" xmlns="http://www.w3.org/2000/svg" xmlns:xlink="http://www.w3.org/1999/xlink" x="0px" y="0px"
	 viewBox="0 0 68 68.1" style="enable-background:new 0 0 68 68.1;" xml:space="preserve">
<style type="text/css">
	.st0{fill:#8C8C8C;}
</style>
<g>
	<path class="st0" d="M34,67.3C15.6,67.3,0.7,52.4,0.7,34C0.7,15.6,15.6,0.7,34,0.7c18.4,0,33.3,14.9,33.3,33.3
		C67.2,52.4,52.3,67.3,34,67.3z M34,1.7C16.2,1.7,1.7,16.2,1.7,34c0,17.8,14.5,32.3,32.3,32.3c17.8,0,32.3-14.5,32.3-32.3
		C66.2,16.2,51.8,1.7,34,1.7z"/>
</g>
<path class="st0" d="M56.2,20.2c-1.6,0.7-3.4,1.2-5.2,1.4c1.9-1.1,3.3-2.9,4-5c-1.8,1-3.7,1.8-5.8,2.2c-1.7-1.8-4-2.9-6.6-2.9
	c-5,0-9.1,4.1-9.1,9.1c0,0.7,0.1,1.4,0.2,2.1c-7.6-0.4-14.3-4-18.8-9.5c-0.8,1.3-1.2,2.9-1.2,4.6c0,3.2,1.6,5.9,4,7.6
	c-1.5,0-2.9-0.5-4.1-1.1v0.1c0,4.4,3.1,8.1,7.3,8.9c-0.8,0.2-1.6,0.3-2.4,0.3c-0.6,0-1.2-0.1-1.7-0.2c1.2,3.6,4.5,6.3,8.5,6.3
	c-3.1,2.4-7,3.9-11.3,3.9c-0.7,0-1.5,0-2.2-0.1c4,2.6,8.8,4.1,14,4.1c16.8,0,25.9-13.9,25.9-25.9c0-0.4,0-0.8,0-1.2
	C53.4,23.6,55,22,56.2,20.2z"/>
</svg>
