<?xml version="1.0" encoding="UTF-8" standalone="no"?>
<svg
   xmlns:dc="http://purl.org/dc/elements/1.1/"
   xmlns:cc="http://creativecommons.org/ns#"
   xmlns:rdf="http://www.w3.org/1999/02/22-rdf-syntax-ns#"
   xmlns:svg="http://www.w3.org/2000/svg"
   xmlns="http://www.w3.org/2000/svg"
   id="svg1581"
   version="1.1"
   viewBox="0 0 7.1906299 5.9464999"
   height="5.9464998mm"
   width="7.19063mm">
  <defs
     id="defs1575" />
  <metadata
     id="metadata1578">
    <rdf:RDF>
      <cc:Work
         rdf:about="">
        <dc:format>image/svg+xml</dc:format>
        <dc:type
           rdf:resource="http://purl.org/dc/dcmitype/StillImage" />
        <dc:title></dc:title>
      </cc:Work>
    </rdf:RDF>
  </metadata>
  <g
     transform="translate(-119.70459,-184.81089)"
     id="layer1">
    <path
       d="m 126.1596,186.29193 c 0.003,0.0646 0.004,0.12912 0.004,0.19438 0,1.98367 -1.48379,4.27108 -4.19735,4.27108 -0.83326,0 -1.60867,-0.24871 -2.26166,-0.67451 0.11536,0.0141 0.23283,0.0208 0.35207,0.0208 0.69109,0 1.32715,-0.23989 1.83233,-0.64241 -0.64594,-0.012 -1.19063,-0.44627 -1.3783,-1.04246 0.09,0.0173 0.18238,0.0268 0.27763,0.0268 0.13441,0 0.26494,-0.0183 0.38876,-0.0526 -0.67521,-0.13794 -1.18356,-0.74472 -1.18356,-1.47215 0,-0.006 0,-0.0123 0,-0.0187 0.19896,0.11218 0.4265,0.17991 0.66816,0.18767 -0.39582,-0.26917 -0.65617,-0.72848 -0.65617,-1.24953 0,-0.27517 0.0727,-0.53305 0.19967,-0.7546 0.72778,0.90805 1.81469,1.50601 3.04095,1.56845 -0.0251,-0.10971 -0.0385,-0.22436 -0.0385,-0.34219 0,-0.82903 0.66076,-1.50107 1.47532,-1.50107 0.42439,0 0.80786,0.18239 1.07703,0.47413 0.33584,-0.0674 0.65158,-0.19226 0.93663,-0.36442 -0.11007,0.35067 -0.34396,0.64488 -0.64841,0.83044 0.29845,-0.036 0.58279,-0.11677 0.84702,-0.23636 -0.19756,0.30127 -0.44768,0.5655 -0.7359,0.77717"
       style="fill:black;fill-opacity:1;fill-rule:nonzero;stroke:none;stroke-width:0.35277775"
       id="path1553" />
  </g>
</svg>
